<svg width="40" height="40" viewBox="0 0 40 40" fill="none" xmlns="http://www.w3.org/2000/svg">
<path fill-rule="evenodd" clip-rule="evenodd" d="M35.4561 1.176C35.3981 0.511788 34.8428 0.00161587 34.176 0H23.408C23.0611 0.00142291 22.7294 0.142756 22.488 0.392C22.242 0.640198 22.1089 0.978694 22.12 1.328V1.456C22.12 3.72699 20.279 5.568 18.008 5.568C15.7371 5.568 13.896 3.72699 13.896 1.456V1.328C13.9124 0.980878 13.7851 0.642348 13.544 0.392C13.2992 0.14305 12.9652 0.00197077 12.616 0H5.24804C4.59082 0.0182922 4.05288 0.528652 4.00004 1.184L0.800042 38.12C0.766177 38.4819 0.886774 38.8412 1.13209 39.1094C1.3774 39.3775 1.7246 39.5296 2.08804 39.528H37.4001C37.7635 39.5296 38.1107 39.3775 38.356 39.1094C38.6013 38.8412 38.7219 38.4819 38.6881 38.12L35.4561 1.176ZM26.2881 36.944H3.50406L6.40006 2.58401H11.3761C11.9165 5.81028 14.7088 8.17385 17.9801 8.17385C21.2513 8.17385 24.0437 5.81028 24.5841 2.58401H29.1841L26.2881 36.944ZM33.3841 36.816V36.944H36.0001L35.7841 34.672C35.6332 34.7831 35.4514 34.8446 35.2641 34.848C34.7294 34.848 34.2961 34.4146 34.2961 33.88C34.2961 33.3454 34.7294 32.912 35.2641 32.912C35.3929 32.9111 35.5206 32.9356 35.6401 32.984L35.3041 29.152C34.7971 29.1543 34.3757 28.762 34.3418 28.2561C34.3079 27.7503 34.6733 27.3053 35.1761 27.24L34.8321 23.328C34.5361 23.1686 34.3472 22.8639 34.3361 22.528C34.3388 22.2386 34.4709 21.9657 34.6961 21.784L33.0961 3.38399C32.9243 3.53846 32.703 3.62642 32.4721 3.63199C32.2101 3.6291 31.9599 3.52269 31.7761 3.33599L30.1761 21.8C30.4323 21.9843 30.5794 22.2846 30.5681 22.6C30.5646 22.9592 30.3609 23.2864 30.0401 23.448L29.7121 27.336C30.197 27.3851 30.5665 27.7926 30.5681 28.28C30.5681 28.5367 30.4661 28.7829 30.2845 28.9645C30.103 29.146 29.8568 29.248 29.6001 29.248H29.5361L29.2081 33.088C29.3298 33.037 29.4601 33.0099 29.5921 33.008C30.1267 33.008 30.5601 33.4414 30.5601 33.976C30.5601 34.5106 30.1267 34.944 29.5921 34.944C29.4025 34.9392 29.2186 34.8779 29.0641 34.768L28.8801 36.944H31.4481C31.4443 36.9014 31.4443 36.8586 31.4481 36.816C31.4481 36.4701 31.6326 36.1506 31.9321 35.9777C32.2316 35.8048 32.6006 35.8048 32.9001 35.9777C33.1996 36.1506 33.3841 36.4701 33.3841 36.816Z" fill="#DD0031"/>
<path d="M32.4402 7.42383C31.9056 7.42383 31.4722 7.85722 31.4722 8.39183C31.4722 8.92644 31.9056 9.35983 32.4402 9.35983C32.9748 9.35983 33.4082 8.92644 33.4082 8.39183C33.4082 7.85722 32.9748 7.42383 32.4402 7.42383Z" fill="#DD0031"/>
<path d="M32.4402 13.1123C31.9056 13.1123 31.4722 13.5457 31.4722 14.0803C31.4722 14.6149 31.9056 15.0483 32.4402 15.0483C32.9748 15.0483 33.4082 14.6149 33.4082 14.0803C33.4082 13.5457 32.9748 13.1123 32.4402 13.1123Z" fill="#DD0031"/>
<path d="M32.4402 18.792C31.9056 18.792 31.4722 19.2254 31.4722 19.76C31.4722 20.2946 31.9056 20.728 32.4402 20.728C32.9748 20.728 33.4082 20.2946 33.4082 19.76C33.4082 19.5033 33.3062 19.257 33.1246 19.0755C32.9431 18.894 32.6969 18.792 32.4402 18.792Z" fill="#DD0031"/>
<path d="M32.4402 24.4805C31.9056 24.4805 31.4722 24.9139 31.4722 25.4485C31.4722 25.9831 31.9056 26.4165 32.4402 26.4165C32.9748 26.4165 33.4082 25.9831 33.4082 25.4485C33.4082 24.9139 32.9748 24.4805 32.4402 24.4805V24.4805Z" fill="#DD0031"/>
<path d="M32.4401 30.1602C32.0446 30.1569 31.6863 30.3927 31.5327 30.7571C31.3791 31.1216 31.4606 31.5427 31.7391 31.8234C32.0176 32.1042 32.438 32.1892 32.8037 32.0386C33.1694 31.8881 33.4081 31.5317 33.4081 31.1362C33.4081 30.6003 32.976 30.1646 32.4401 30.1602Z" fill="#DD0031"/>
</svg>
