<svg width="56" height="56" viewBox="0 0 56 56" fill="none" xmlns="http://www.w3.org/2000/svg">
<path d="M54.6872 43.6793C55.3412 43.6793 55.8662 43.149 55.8662 42.4957C55.8662 41.8423 55.3412 41.3168 54.6872 41.3168H1.18451C0.531172 41.3168 -0.000244141 41.8423 -0.000244141 42.4957C-0.000244141 43.149 0.531172 43.6793 1.18451 43.6793H54.6872Z" fill="#DD0031"/>
<path d="M18.9783 22.7325C19.5482 22.7325 20.0102 22.271 20.0102 21.7011C20.0102 21.1318 19.5482 20.6698 18.9783 20.6698C18.4084 20.6698 17.947 21.1318 17.947 21.7011C17.947 22.271 18.4084 22.7325 18.9783 22.7325Z" fill="#DD0031"/>
<path d="M31.9167 21.7011C31.9167 22.271 31.4547 22.7325 30.8848 22.7325C30.3149 22.7325 29.8529 22.271 29.8529 21.7011C29.8529 21.1318 30.3149 20.6698 30.8848 20.6698C31.4547 20.6698 31.9167 21.1318 31.9167 21.7011Z" fill="#DD0031"/>
<path d="M24.9318 22.7325C25.5017 22.7325 25.9637 22.271 25.9637 21.7011C25.9637 21.1318 25.5017 20.6698 24.9318 20.6698C24.3619 20.6698 23.8999 21.1318 23.8999 21.7011C23.8999 22.271 24.3619 22.7325 24.9318 22.7325Z" fill="#DD0031"/>
<path d="M34.7792 24.8263C34.7792 25.3962 34.3173 25.8582 33.7479 25.8582C33.178 25.8582 32.716 25.3962 32.716 24.8263C32.716 24.2569 33.178 23.7949 33.7479 23.7949C34.3173 23.7949 34.7792 24.2569 34.7792 24.8263Z" fill="#DD0031"/>
<path d="M18.9783 28.6415C19.5482 28.6415 20.0102 28.1801 20.0102 27.6102C20.0102 27.0408 19.5482 26.5788 18.9783 26.5788C18.4084 26.5788 17.947 27.0408 17.947 27.6102C17.947 28.1801 18.4084 28.6415 18.9783 28.6415Z" fill="#DD0031"/>
<path d="M14.0573 27.6102C14.0573 28.1801 13.5953 28.6415 13.0254 28.6415C12.4554 28.6415 11.9934 28.1801 11.9934 27.6102C11.9934 27.0408 12.4554 26.5788 13.0254 26.5788C13.5953 26.5788 14.0573 27.0408 14.0573 27.6102Z" fill="#DD0031"/>
<path d="M30.8848 28.6415C31.4547 28.6415 31.9167 28.1801 31.9167 27.6102C31.9167 27.0408 31.4547 26.5788 30.8848 26.5788C30.3149 26.5788 29.8529 27.0408 29.8529 27.6102C29.8529 28.1801 30.3149 28.6415 30.8848 28.6415Z" fill="#DD0031"/>
<path d="M25.9637 27.6102C25.9637 28.1801 25.5017 28.6415 24.9318 28.6415C24.3619 28.6415 23.8999 28.1801 23.8999 27.6102C23.8999 27.0408 24.3619 26.5788 24.9318 26.5788C25.5017 26.5788 25.9637 27.0408 25.9637 27.6102Z" fill="#DD0031"/>
<path d="M15.9579 25.8838C16.5279 25.8838 16.9899 25.4224 16.9899 24.8525C16.9899 24.8505 16.9896 24.8485 16.9893 24.8465L16.9889 24.8434C16.9888 24.8422 16.9887 24.8409 16.9887 24.8396C16.9887 24.8372 16.989 24.835 16.9893 24.8328L16.9895 24.8316C16.9897 24.83 16.9899 24.8284 16.9899 24.8268C16.9899 24.2569 16.5279 23.7949 15.9579 23.7949C15.388 23.7949 14.9266 24.2569 14.9266 24.8268C14.9266 24.8309 14.9278 24.835 14.9278 24.8396C14.9278 24.8421 14.9275 24.8443 14.9272 24.8465L14.9268 24.8493C14.9267 24.8503 14.9266 24.8514 14.9266 24.8525C14.9266 25.4224 15.388 25.8838 15.9579 25.8838Z" fill="#DD0031"/>
<path d="M28.8964 24.8525C28.8964 25.4224 28.4344 25.8838 27.8645 25.8838C27.2946 25.8838 26.8326 25.4224 26.8326 24.8525C26.8326 24.8505 26.833 24.8485 26.8334 24.8465C26.8338 24.8443 26.8343 24.8421 26.8343 24.8396C26.8343 24.835 26.8326 24.8309 26.8326 24.8268C26.8326 24.2569 27.2946 23.7949 27.8645 23.7949C28.4344 23.7949 28.8964 24.2569 28.8964 24.8268C28.8964 24.8288 28.8961 24.8308 28.8958 24.8328C28.8955 24.835 28.8952 24.8372 28.8952 24.8396C28.8952 24.8443 28.8964 24.8484 28.8964 24.8525Z" fill="#DD0031"/>
<path d="M21.9115 25.8838C22.4814 25.8838 22.9434 25.4224 22.9434 24.8525C22.9434 24.8505 22.943 24.8485 22.9426 24.8465C22.9421 24.8443 22.9417 24.8421 22.9417 24.8396C22.9417 24.8372 22.9421 24.835 22.9426 24.8328C22.943 24.8308 22.9434 24.8288 22.9434 24.8268C22.9434 24.2569 22.4814 23.7949 21.9115 23.7949C21.3416 23.7949 20.8796 24.2569 20.8796 24.8268C20.8796 24.8278 20.8797 24.8289 20.8798 24.8299L20.8801 24.8328C20.8804 24.835 20.8808 24.8372 20.8808 24.8396L20.8807 24.8417L20.8805 24.8436L20.8802 24.8462C20.8799 24.8483 20.8796 24.8504 20.8796 24.8525C20.8796 25.4224 21.3416 25.8838 21.9115 25.8838Z" fill="#DD0031"/>
<path d="M20.0102 33.3353C20.0102 33.9052 19.5482 34.3672 18.9783 34.3672C18.4084 34.3672 17.947 33.9052 17.947 33.3353C17.947 32.766 18.4084 32.3046 18.9783 32.3046C19.5482 32.3046 20.0102 32.766 20.0102 33.3353Z" fill="#DD0031"/>
<path d="M13.0254 34.3672C13.5953 34.3672 14.0573 33.9052 14.0573 33.3353C14.0573 32.766 13.5953 32.3046 13.0254 32.3046C12.4554 32.3046 11.9934 32.766 11.9934 33.3353C11.9934 33.9052 12.4554 34.3672 13.0254 34.3672Z" fill="#DD0031"/>
<path d="M31.9167 33.3353C31.9167 33.9052 31.4547 34.3672 30.8848 34.3672C30.3149 34.3672 29.8529 33.9052 29.8529 33.3353C29.8529 32.766 30.3149 32.3046 30.8848 32.3046C31.4547 32.3046 31.9167 32.766 31.9167 33.3353Z" fill="#DD0031"/>
<path d="M24.9318 34.3672C25.5017 34.3672 25.9637 33.9052 25.9637 33.3353C25.9637 32.766 25.5017 32.3046 24.9318 32.3046C24.3619 32.3046 23.8999 32.766 23.8999 33.3353C23.8999 33.9052 24.3619 34.3672 24.9318 34.3672Z" fill="#DD0031"/>
<path d="M16.9899 30.5775C16.9899 31.1475 16.5279 31.6095 15.9579 31.6095C15.388 31.6095 14.9266 31.1475 14.9266 30.5775C14.9266 30.0082 15.388 29.5468 15.9579 29.5468C16.5279 29.5468 16.9899 30.0082 16.9899 30.5775Z" fill="#DD0031"/>
<path d="M27.8645 31.6095C28.4344 31.6095 28.8964 31.1475 28.8964 30.5775C28.8964 30.0082 28.4344 29.5468 27.8645 29.5468C27.2946 29.5468 26.8326 30.0082 26.8326 30.5775C26.8326 31.1475 27.2946 31.6095 27.8645 31.6095Z" fill="#DD0031"/>
<path d="M22.9434 30.5775C22.9434 31.1475 22.4814 31.6095 21.9115 31.6095C21.3416 31.6095 20.8796 31.1475 20.8796 30.5775C20.8796 30.0082 21.3416 29.5468 21.9115 29.5468C22.4814 29.5468 22.9434 30.0082 22.9434 30.5775Z" fill="#DD0031"/>
<path d="M10.2152 31.6095C10.7851 31.6095 11.2471 31.1475 11.2471 30.5775C11.2471 30.0082 10.7851 29.5468 10.2152 29.5468C9.64529 29.5468 9.18329 30.0082 9.18329 30.5775C9.18329 31.1475 9.64529 31.6095 10.2152 31.6095Z" fill="#DD0031"/>
<path d="M38.0805 21.831C38.0805 22.4009 37.619 22.8629 37.0491 22.8629C36.4792 22.8629 36.0172 22.4009 36.0172 21.831C36.0172 21.2616 36.4792 20.7996 37.0491 20.7996C37.619 20.7996 38.0805 21.2616 38.0805 21.831Z" fill="#DD0031"/>
<path d="M33.7479 31.6095C34.3173 31.6095 34.7792 31.1475 34.7792 30.5775C34.7792 30.0082 34.3173 29.5468 33.7479 29.5468C33.178 29.5468 32.716 30.0082 32.716 30.5775C32.716 31.1475 33.178 31.6095 33.7479 31.6095Z" fill="#DD0031"/>
<path d="M38.0805 27.5937C38.0805 28.1636 37.619 28.625 37.0491 28.625C36.4792 28.625 36.0172 28.1636 36.0172 27.5937C36.0172 27.0243 36.4792 26.5623 37.0491 26.5623C37.619 26.5623 38.0805 27.0243 38.0805 27.5937Z" fill="#DD0031"/>
<path d="M39.9116 25.8673C40.4816 25.8673 40.9436 25.4059 40.9436 24.836C40.9436 24.2666 40.4816 23.8046 39.9116 23.8046C39.3417 23.8046 38.8797 24.2666 38.8797 24.836C38.8797 25.4059 39.3417 25.8673 39.9116 25.8673Z" fill="#DD0031"/>
<path d="M37.9808 33.3353C37.9808 33.9052 37.5188 34.3672 36.9488 34.3672C36.3795 34.3672 35.9175 33.9052 35.9175 33.3353C35.9175 32.766 36.3795 32.3046 36.9488 32.3046C37.5188 32.3046 37.9808 32.766 37.9808 33.3353Z" fill="#DD0031"/>
<path d="M39.812 31.6095C40.3819 31.6095 40.8439 31.1475 40.8439 30.5775C40.8439 30.0082 40.3819 29.5468 39.812 29.5468C39.242 29.5468 38.78 30.0082 38.78 30.5775C38.78 31.1475 39.242 31.6095 39.812 31.6095Z" fill="#DD0031"/>
<path d="M44.1451 27.5937C44.1451 28.1636 43.6831 28.625 43.1132 28.625C42.5432 28.625 42.0812 28.1636 42.0812 27.5937C42.0812 27.0243 42.5432 26.5623 43.1132 26.5623C43.6831 26.5623 44.1451 27.0243 44.1451 27.5937Z" fill="#DD0031"/>
<path d="M42.932 34.7226C43.502 34.7226 43.964 34.2612 43.964 33.6913C43.964 33.122 43.502 32.66 42.932 32.66C42.3621 32.66 41.9001 33.122 41.9001 33.6913C41.9001 34.2612 42.3621 34.7226 42.932 34.7226Z" fill="#DD0031"/>
<path d="M46.8265 30.9336C46.8265 31.5035 46.3645 31.9649 45.7946 31.9649C45.2252 31.9649 44.7632 31.5035 44.7632 30.9336C44.7632 30.3643 45.2252 29.9023 45.7946 29.9023C46.3645 29.9023 46.8265 30.3643 46.8265 30.9336Z" fill="#DD0031"/>
<path fill-rule="evenodd" clip-rule="evenodd" d="M33.2794 16.7763V14.0172C33.2794 13.3638 32.748 12.833 32.0952 12.833H24.5236C23.8702 12.833 23.3452 13.3638 23.3452 14.0172V16.7822C12.8213 18.0888 4.64881 27.0838 4.64881 37.9513C4.64881 38.6047 5.18022 39.1297 5.83356 39.1297H50.8611C51.5086 39.1297 52.0394 38.6047 52.0394 37.9513C52.0394 27.0547 43.8313 18.0538 33.2794 16.7763ZM46.9352 36.1022C46.9352 36.3588 46.8419 36.5863 46.6844 36.7672H49.6419C49.5888 35.9038 49.4721 35.0522 49.3035 34.2238C49.146 34.3172 48.9652 34.3755 48.7669 34.3755C48.2011 34.3755 47.7344 33.9147 47.7344 33.343C47.7344 32.7772 48.2011 32.3105 48.7669 32.3105C48.775 32.3105 48.7831 32.3118 48.7918 32.3131C48.8019 32.3147 48.8127 32.3163 48.8252 32.3163C46.8005 25.8297 41.3877 20.8305 34.6671 19.4013C34.498 19.7397 34.1544 19.973 33.7461 19.973C33.2269 19.973 32.8005 19.588 32.7311 19.0863C32.0655 19.0163 31.3888 18.9755 30.7063 18.9755H28.8927C28.8752 19.5297 28.4196 19.973 27.8661 19.973C27.3055 19.973 26.8569 19.5297 26.8388 18.9755H25.9877C24.9319 18.9755 23.9046 19.0688 22.8961 19.2322C22.7677 19.6638 22.3769 19.973 21.9096 19.973C21.6011 19.973 21.3211 19.833 21.1338 19.6113C14.6594 21.3263 9.53772 26.3838 7.72355 32.8122C7.97964 32.9988 8.1488 33.3022 8.1488 33.6405C8.1488 34.148 7.78772 34.568 7.30356 34.6555C7.18047 35.3497 7.09355 36.0497 7.05272 36.7672H9.29855C9.22855 36.6272 9.18189 36.4697 9.18189 36.3063C9.18189 35.7347 9.64855 35.2738 10.2138 35.2738C10.7861 35.2738 11.2469 35.7347 11.2469 36.3063C11.2469 36.4697 11.2002 36.6272 11.1302 36.7672H15.0444C14.9686 36.6272 14.9277 36.4697 14.9277 36.3063C14.9277 35.7347 15.3886 35.2738 15.9602 35.2738C16.5261 35.2738 16.9869 35.7347 16.9869 36.3063C16.9869 36.4697 16.9461 36.6272 16.8755 36.7672H20.9944C20.9244 36.6272 20.8777 36.4697 20.8777 36.3063C20.8777 35.7347 21.3444 35.2738 21.9096 35.2738C22.4819 35.2738 22.9427 35.7347 22.9427 36.3063C22.9427 36.4697 22.9013 36.6272 22.8261 36.7672H26.9502C26.8744 36.6272 26.8336 36.4697 26.8336 36.3063C26.8336 35.7347 27.2944 35.2738 27.8661 35.2738C28.4319 35.2738 28.8986 35.7347 28.8986 36.3063C28.8986 36.4697 28.8519 36.6272 28.7819 36.7672H33.0111C32.9405 36.6272 32.9002 36.4697 32.9002 36.3063C32.9002 35.7347 33.3611 35.2738 33.9269 35.2738C34.498 35.2738 34.9588 35.7347 34.9588 36.3063C34.9588 36.4697 34.9186 36.6272 34.8421 36.7672H38.8911C38.8852 36.7322 38.8794 36.6971 38.8794 36.6622C38.8794 36.0905 39.3402 35.6297 39.9119 35.6297C40.4836 35.6297 40.9444 36.0905 40.9444 36.6622C40.9444 36.6918 40.9398 36.7214 40.9352 36.7511L40.9327 36.7672H45.1269C44.9694 36.5863 44.8755 36.3588 44.8755 36.1022C44.8755 35.5305 45.3363 35.0697 45.9027 35.0697C46.4744 35.0697 46.9352 35.5305 46.9352 36.1022ZM25.7077 15.1955H30.9169V16.6188C30.8819 16.6188 30.8468 16.6174 30.8116 16.6159C30.7765 16.6145 30.7413 16.613 30.7063 16.613H25.9877C25.9406 16.613 25.8937 16.6145 25.8468 16.6159C25.8003 16.6174 25.7539 16.6188 25.7077 16.6188V15.1955Z" fill="#DD0031"/>
</svg>
