<svg width="59" height="39" viewBox="0 0 59 39" fill="none" xmlns="http://www.w3.org/2000/svg">
<path d="M25.6565 19.4116H19.8544C18.9898 19.4116 18.2919 20.1095 18.2919 20.9741C18.2919 21.8387 18.9898 22.5366 19.8544 22.5366H25.6565C26.521 22.5366 27.219 21.8387 27.219 20.9741C27.219 20.1095 26.521 19.4116 25.6565 19.4116Z" fill="#DC1E36"/>
<path d="M14.0557 30.1873C13.3995 30.1873 12.863 30.7185 12.863 31.38C12.863 32.0362 13.3943 32.5727 14.0557 32.5727C14.712 32.5727 15.2485 32.0414 15.2485 31.38C15.2485 30.7185 14.712 30.1873 14.0557 30.1873Z" fill="#DC1E36"/>
<path d="M45.3375 30.1873C44.6812 30.1873 44.1448 30.7185 44.1448 31.38C44.1448 32.0362 44.676 32.5727 45.3375 32.5727C45.9937 32.5727 46.5302 32.0414 46.5302 31.38C46.5302 30.7185 45.9989 30.1873 45.3375 30.1873Z" fill="#DC1E36"/>
<path d="M51.4821 4.021C50.93 4.021 50.4821 4.46891 50.4821 5.021C50.4821 5.57308 50.93 6.021 51.4821 6.021C52.0341 6.021 52.4821 5.57308 52.4821 5.021C52.4821 4.46891 52.0289 4.021 51.4821 4.021Z" fill="#DC1E36"/>
<path d="M45.6121 4.021C45.06 4.021 44.6121 4.46891 44.6121 5.021C44.6121 5.57308 45.06 6.021 45.6121 6.021C46.1642 6.021 46.6121 5.57308 46.6121 5.021C46.6121 4.46891 46.1642 4.021 45.6121 4.021Z" fill="#DC1E36"/>
<path d="M48.5519 6.95312C47.9999 6.95312 47.5519 7.40104 47.5519 7.95313C47.5519 8.50521 47.9999 8.95313 48.5519 8.95313C49.104 8.95313 49.5519 8.50521 49.5519 7.95313C49.5519 7.40104 49.0988 6.95312 48.5519 6.95312Z" fill="#DC1E36"/>
<path d="M48.5519 12.8225C47.9999 12.8225 47.5519 13.2704 47.5519 13.8225C47.5519 14.3746 47.9999 14.8225 48.5519 14.8225C49.104 14.8225 49.5519 14.3746 49.5519 13.8225C49.5467 13.2704 49.0988 12.8225 48.5519 12.8225Z" fill="#DC1E36"/>
<path d="M54.4155 12.8225C53.8634 12.8225 53.4155 13.2704 53.4155 13.8225C53.4155 14.3746 53.8634 14.8225 54.4155 14.8225C54.9676 14.8225 55.4155 14.3746 55.4155 13.8225C55.4155 13.2704 54.9676 12.8225 54.4155 12.8225Z" fill="#DC1E36"/>
<path d="M51.4821 9.89087C50.93 9.89087 50.4821 10.3388 50.4821 10.8909C50.4821 11.443 50.93 11.8909 51.4821 11.8909C52.0341 11.8909 52.4821 11.443 52.4821 10.8909C52.4821 10.3388 52.0289 9.89087 51.4821 9.89087Z" fill="#DC1E36"/>
<path d="M45.6121 9.89087C45.06 9.89087 44.6121 10.3388 44.6121 10.8909C44.6121 11.443 45.06 11.8909 45.6121 11.8909C46.1642 11.8909 46.6121 11.443 46.6121 10.8909C46.6121 10.3388 46.1642 9.89087 45.6121 9.89087Z" fill="#DC1E36"/>
<path d="M51.4821 15.7549C50.93 15.7549 50.4821 16.2028 50.4821 16.7549C50.4821 17.307 50.93 17.7549 51.4821 17.7549C52.0341 17.7549 52.4821 17.307 52.4821 16.7549C52.4821 16.2028 52.0289 15.7549 51.4821 15.7549Z" fill="#DC1E36"/>
<path d="M45.6121 15.7549C45.06 15.7549 44.6121 16.2028 44.6121 16.7549C44.6121 17.307 45.06 17.7549 45.6121 17.7549C46.1642 17.7549 46.6121 17.307 46.6121 16.7549C46.6121 16.2028 46.1642 15.7549 45.6121 15.7549Z" fill="#DC1E36"/>
<path d="M48.5519 18.6875C47.9999 18.6875 47.5519 19.1354 47.5519 19.6875C47.5519 20.2396 47.9999 20.6875 48.5519 20.6875C49.104 20.6875 49.5519 20.2396 49.5519 19.6875C49.5519 19.1354 49.0988 18.6875 48.5519 18.6875Z" fill="#DC1E36"/>
<path d="M54.4155 18.6875C53.8634 18.6875 53.4155 19.1354 53.4155 19.6875C53.4155 20.2396 53.8634 20.6875 54.4155 20.6875C54.9676 20.6875 55.4155 20.2396 55.4155 19.6875C55.4155 19.1354 54.9676 18.6875 54.4155 18.6875Z" fill="#DC1E36"/>
<path d="M54.4155 24.5574C53.8634 24.5574 53.4155 25.0053 53.4155 25.5574C53.4155 26.1095 53.8634 26.5574 54.4155 26.5574C54.9676 26.5574 55.4155 26.1095 55.4155 25.5574C55.4155 25.0053 54.9676 24.5574 54.4155 24.5574Z" fill="#DC1E36"/>
<path d="M51.4821 21.625C50.93 21.625 50.4821 22.0729 50.4821 22.625C50.4821 23.1771 50.93 23.625 51.4821 23.625C52.0341 23.625 52.4821 23.1771 52.4821 22.625C52.4821 22.0729 52.0289 21.625 51.4821 21.625Z" fill="#DC1E36"/>
<path d="M45.6121 23.625C46.1644 23.625 46.6121 23.1773 46.6121 22.625C46.6121 22.0727 46.1644 21.625 45.6121 21.625C45.0598 21.625 44.6121 22.0727 44.6121 22.625C44.6121 23.1773 45.0598 23.625 45.6121 23.625Z" fill="#DC1E36"/>
<path d="M39.7486 4.021C39.1965 4.021 38.7486 4.46891 38.7486 5.021C38.7486 5.57308 39.1965 6.021 39.7486 6.021C40.3007 6.021 40.7486 5.57308 40.7486 5.021C40.7486 4.46891 40.3007 4.021 39.7486 4.021Z" fill="#DC1E36"/>
<path d="M33.8787 4.021C33.3266 4.021 32.8787 4.46891 32.8787 5.021C32.8787 5.57308 33.3266 6.021 33.8787 6.021C34.4307 6.021 34.8786 5.57308 34.8786 5.021C34.8786 4.46891 34.4307 4.021 33.8787 4.021Z" fill="#DC1E36"/>
<path d="M36.8162 6.95312C36.2641 6.95312 35.8162 7.40104 35.8162 7.95313C35.8162 8.50521 36.2641 8.95313 36.8162 8.95313C37.3683 8.95313 37.8162 8.50521 37.8162 7.95313C37.8162 7.40104 37.3631 6.95312 36.8162 6.95312Z" fill="#DC1E36"/>
<path d="M42.682 8.95313C43.2343 8.95313 43.682 8.50541 43.682 7.95313C43.682 7.40084 43.2343 6.95312 42.682 6.95312C42.1297 6.95312 41.682 7.40084 41.682 7.95313C41.682 8.50541 42.1297 8.95313 42.682 8.95313Z" fill="#DC1E36"/>
<path d="M36.8162 12.8225C36.2641 12.8225 35.8162 13.2704 35.8162 13.8225C35.8162 14.3746 36.2641 14.8225 36.8162 14.8225C37.3683 14.8225 37.8162 14.3746 37.8162 13.8225C37.811 13.2704 37.3631 12.8225 36.8162 12.8225Z" fill="#DC1E36"/>
<path d="M42.682 12.8225C42.1299 12.8225 41.682 13.2704 41.682 13.8225C41.682 14.3746 42.1299 14.8225 42.682 14.8225C43.2341 14.8225 43.682 14.3746 43.682 13.8225C43.682 13.2704 43.2341 12.8225 42.682 12.8225Z" fill="#DC1E36"/>
<path d="M39.7486 9.89087C39.1965 9.89087 38.7486 10.3388 38.7486 10.8909C38.7486 11.443 39.1965 11.8909 39.7486 11.8909C40.3007 11.8909 40.7486 11.443 40.7486 10.8909C40.7486 10.3388 40.3007 9.89087 39.7486 9.89087Z" fill="#DC1E36"/>
<path d="M33.8787 9.89087C33.3266 9.89087 32.8787 10.3388 32.8787 10.8909C32.8787 11.443 33.3266 11.8909 33.8787 11.8909C34.4307 11.8909 34.8786 11.443 34.8786 10.8909C34.8786 10.3388 34.4307 9.89087 33.8787 9.89087Z" fill="#DC1E36"/>
<path d="M39.7486 15.7549C39.1965 15.7549 38.7486 16.2028 38.7486 16.7549C38.7486 17.307 39.1965 17.7549 39.7486 17.7549C40.3007 17.7549 40.7486 17.307 40.7486 16.7549C40.7486 16.2028 40.3007 15.7549 39.7486 15.7549Z" fill="#DC1E36"/>
<path d="M33.8787 15.7549C33.3266 15.7549 32.8787 16.2028 32.8787 16.7549C32.8787 17.307 33.3266 17.7549 33.8787 17.7549C34.4307 17.7549 34.8786 17.307 34.8786 16.7549C34.8786 16.2028 34.4307 15.7549 33.8787 15.7549Z" fill="#DC1E36"/>
<path d="M36.8162 18.6875C36.2641 18.6875 35.8162 19.1354 35.8162 19.6875C35.8162 20.2396 36.2641 20.6875 36.8162 20.6875C37.3683 20.6875 37.8162 20.2396 37.8162 19.6875C37.8162 19.1354 37.3631 18.6875 36.8162 18.6875Z" fill="#DC1E36"/>
<path d="M42.682 20.6875C43.2343 20.6875 43.682 20.2398 43.682 19.6875C43.682 19.1352 43.2343 18.6875 42.682 18.6875C42.1297 18.6875 41.682 19.1352 41.682 19.6875C41.682 20.2398 42.1297 20.6875 42.682 20.6875Z" fill="#DC1E36"/>
<path d="M36.8162 24.5574C36.2641 24.5574 35.8162 25.0053 35.8162 25.5574C35.8162 26.1095 36.2641 26.5574 36.8162 26.5574C37.3683 26.5574 37.8162 26.1095 37.8162 25.5574C37.811 25.0053 37.3631 24.5574 36.8162 24.5574Z" fill="#DC1E36"/>
<path d="M39.7486 21.625C39.1965 21.625 38.7486 22.0729 38.7486 22.625C38.7486 23.1771 39.1965 23.625 39.7486 23.625C40.3007 23.625 40.7486 23.1771 40.7486 22.625C40.7486 22.0729 40.3007 21.625 39.7486 21.625Z" fill="#DC1E36"/>
<path d="M33.8787 21.625C33.3266 21.625 32.8787 22.0729 32.8787 22.625C32.8787 23.1771 33.3266 23.625 33.8787 23.625C34.4307 23.625 34.8786 23.1771 34.8786 22.625C34.8786 22.0729 34.4307 21.625 33.8787 21.625Z" fill="#DC1E36"/>
<path d="M33.8787 27.49C33.3266 27.49 32.8787 27.9379 32.8787 28.49C32.8787 29.0421 33.3266 29.49 33.8787 29.49C34.4307 29.49 34.8786 29.0421 34.8786 28.49C34.8786 27.9379 34.4307 27.49 33.8787 27.49Z" fill="#DC1E36"/>
<path d="M30.9453 8.95313C31.4976 8.95313 31.9453 8.50541 31.9453 7.95313C31.9453 7.40084 31.4976 6.95312 30.9453 6.95312C30.393 6.95312 29.9453 7.40084 29.9453 7.95313C29.9453 8.50541 30.393 8.95313 30.9453 8.95313Z" fill="#DC1E36"/>
<path d="M30.9453 12.8225C30.3932 12.8225 29.9453 13.2704 29.9453 13.8225C29.9453 14.3746 30.3932 14.8225 30.9453 14.8225C31.4974 14.8225 31.9453 14.3746 31.9453 13.8225C31.9453 13.2704 31.4974 12.8225 30.9453 12.8225Z" fill="#DC1E36"/>
<path d="M30.9453 20.6875C31.4976 20.6875 31.9453 20.2398 31.9453 19.6875C31.9453 19.1352 31.4976 18.6875 30.9453 18.6875C30.393 18.6875 29.9453 19.1352 29.9453 19.6875C29.9453 20.2398 30.393 20.6875 30.9453 20.6875Z" fill="#DC1E36"/>
<path d="M30.9453 24.5574C30.3932 24.5574 29.9453 25.0053 29.9453 25.5574C29.9453 26.1095 30.3932 26.5574 30.9453 26.5574C31.4974 26.5574 31.9453 26.1095 31.9453 25.5574C31.9453 25.0053 31.4974 24.5574 30.9453 24.5574Z" fill="#DC1E36"/>
<path d="M55.2229 1.43229C54.9885 1.02083 54.551 0.765625 54.077 0.765625H51.4156H21.7125C19.2437 0.765625 16.9156 2.07812 15.6396 4.1875L9.98852 13.5313L3.70207 15.75C1.61352 16.4896 0.207275 18.474 0.207275 20.6927V31.4375C0.207275 32.1667 0.795817 32.7552 1.52498 32.7552H7.39477C8.00936 35.875 10.7541 38.2344 14.0562 38.2344C17.3583 38.2344 20.1031 35.8802 20.7177 32.7552H38.6656C38.7385 33.125 38.8479 33.4844 38.9781 33.8333C38.9885 33.8646 38.9989 33.8958 39.0093 33.9271C39.1396 34.2552 39.2958 34.5677 39.4677 34.8698C39.4937 34.9167 39.5198 34.9583 39.551 35.0052C39.7281 35.2969 39.926 35.5729 40.1448 35.8281C40.176 35.8646 40.2125 35.901 40.2437 35.9375C40.4625 36.1875 40.6968 36.4167 40.9468 36.6302C40.9677 36.6458 40.9833 36.6667 41.0041 36.6823C41.2645 36.8958 41.5406 37.0833 41.827 37.2604C41.8843 37.2969 41.9416 37.3333 41.9989 37.3646C42.2802 37.5261 42.577 37.6615 42.8843 37.7813C42.952 37.8073 43.0198 37.8333 43.0875 37.8542C43.4 37.9635 43.7281 38.0573 44.0614 38.1198C44.1187 38.1302 44.1708 38.1354 44.2281 38.1458C44.5823 38.2031 44.9468 38.2448 45.3218 38.2448C45.3218 38.2448 45.327 38.2448 45.3323 38.2448C45.3323 38.2448 45.3375 38.2448 45.3427 38.2448C45.7177 38.2448 46.077 38.2083 46.4364 38.1458C46.4937 38.1354 46.551 38.1302 46.6031 38.1198C46.9364 38.0573 47.2593 37.9635 47.577 37.8542C47.6448 37.8281 47.7125 37.8073 47.7802 37.7813C48.0875 37.6615 48.3791 37.5261 48.6656 37.3646C48.7229 37.3333 48.7802 37.2969 48.8375 37.2604C49.1239 37.0885 49.4 36.9011 49.6604 36.6875C49.6812 36.6719 49.6968 36.6511 49.7177 36.6354C49.9677 36.4219 50.202 36.1927 50.4208 35.9427C50.452 35.9063 50.4885 35.8698 50.5198 35.8333C50.7385 35.5729 50.9364 35.2969 51.1135 35.0104C51.1395 34.9635 51.1708 34.9219 51.1968 34.875C51.3739 34.5781 51.525 34.2656 51.6552 33.9375C51.6656 33.9063 51.676 33.875 51.6916 33.8438C51.8218 33.5 51.9312 33.1406 52.0041 32.7708H52.952H55.6135C56.202 32.7708 56.7229 32.3802 56.8843 31.8125C59.9468 21.0052 59.2645 8.51563 55.2229 1.43229ZM17.9 5.55729C18.7021 4.22917 20.1656 3.40625 21.7177 3.40625H26.4885V13.2656H13.2333L17.9 5.55729ZM14.0614 35.5938C11.7698 35.5938 9.90519 33.7292 9.90519 31.4375C9.90519 29.1458 11.7698 27.2813 14.0614 27.2813C16.3531 27.2813 18.2177 29.1458 18.2177 31.4375C18.2177 33.7292 16.3531 35.5938 14.0614 35.5938ZM45.3375 35.5938C43.0458 35.5938 41.1812 33.7292 41.1812 31.4375C41.1812 30.974 41.275 30.5365 41.4156 30.1198C41.9729 28.474 43.5093 27.2813 45.3375 27.2813C47.1656 27.2813 48.7073 28.474 49.2593 30.1198C49.4 30.5365 49.4937 30.974 49.4937 31.4375C49.4937 33.7292 47.6291 35.5938 45.3375 35.5938ZM56.1187 17.7344C56.1187 18.3594 56.1135 18.9896 56.0927 19.625C56.0927 19.6979 56.0927 19.7708 56.0875 19.8438C56.0875 19.8438 56.0823 19.8438 56.0823 19.8385C56.0614 20.3438 56.0458 20.849 56.0093 21.3594C56.0093 21.3594 56.0093 21.3594 56.0093 21.3646C55.8114 24.2865 55.3531 27.2396 54.6552 30.1042H54.6135C54.6135 30.1094 54.6135 30.1146 54.6083 30.1198H54.1291H53.15H52.827H51.9885C51.9416 29.8854 51.8843 29.651 51.8114 29.4219C52.1968 29.2865 52.4781 28.9219 52.4781 28.4896C52.4781 27.9375 52.0302 27.4896 51.4781 27.4896C51.2802 27.4896 51.1031 27.5625 50.9468 27.6667C50.525 27.0365 50.0145 26.4792 49.4104 26.026C49.4885 25.8854 49.5458 25.7292 49.5458 25.5573C49.5458 25.0052 49.0979 24.5573 48.5458 24.5573C48.1708 24.5573 47.8531 24.776 47.6812 25.0833C47.025 24.8438 46.3218 24.6927 45.5875 24.6667C45.5927 24.6667 45.5979 24.6615 45.6031 24.6563C45.5093 24.651 45.4208 24.6406 45.327 24.6406C45.2333 24.6406 45.1448 24.651 45.051 24.6563C45.0562 24.6563 45.0614 24.6615 45.0718 24.6667C44.5041 24.6875 43.9625 24.7969 43.4416 24.9479C43.2593 24.7135 42.9885 24.5573 42.6708 24.5573C42.1187 24.5573 41.6708 25.0052 41.6708 25.5573C41.6708 25.6198 41.6968 25.6719 41.7073 25.7344C40.9729 26.2031 40.3218 26.7969 39.8166 27.5104C39.7906 27.5104 39.7646 27.4948 39.7385 27.4948C39.1864 27.4948 38.7385 27.9427 38.7385 28.4948C38.7385 28.7344 38.8375 28.9479 38.9781 29.1198C38.9573 29.1823 38.926 29.2344 38.9052 29.2969C38.9 29.2917 38.8948 29.2917 38.8895 29.2917C38.801 29.5625 38.7385 29.8438 38.6812 30.125H37.5198H32.5614H30.6604H25.3114H20.7229C20.1083 27.0052 17.3583 24.6458 14.0614 24.6458C10.7646 24.6458 8.00936 27 7.39477 30.1198H2.84269V20.6927C2.84269 19.5938 3.54061 18.6042 4.57706 18.2344L11.1916 15.901H27.7958C28.525 15.901 29.1135 15.3125 29.1135 14.5833V3.40625H51.5302H52.551H53.2802H53.5093C53.9937 4.52604 54.4156 5.73959 54.7698 7.03125C54.6552 6.98959 54.5354 6.95833 54.4104 6.95833C53.8583 6.95833 53.4104 7.40625 53.4104 7.95834C53.4104 8.51042 53.8583 8.95833 54.4104 8.95833C54.7125 8.95833 54.9729 8.81771 55.1552 8.60417C55.5979 10.6042 55.8948 12.75 56.025 14.9844C56.0718 15.7604 56.1031 16.5469 56.1135 17.3385C56.1239 17.4688 56.1187 17.599 56.1187 17.7344Z" fill="#DC1E36"/>
</svg>
